<svg width="752" height="275" viewBox="0 0 752 275" fill="none" xmlns="http://www.w3.org/2000/svg">
<path d="M1 274L9.84956 256.834L18.6991 267.909L29.208 265.14L38.0575 267.909L46.9071 262.371L55.7566 204.227L65.1593 69.6653L83.4115 162.142L93.3673 170.448L101.664 162.142L110.513 169.895L119.916 167.68L138.168 91.8154L147.018 115.073L155.867 69.6653L165.27 1L175.226 48.6227L183.522 68.0041L194.031 55.2677L201.774 32.0101L211.177 46.9615L220.58 17.0588L229.429 46.9615L238.832 13.1826L248.235 36.9939L256.531 102.337L266.487 57.4828L275.336 44.1927L284.186 63.0203L293.589 55.2677L302.438 66.3428L311.288 63.0203L320.69 50.284L330.646 60.2515L339.496 135.008L348.898 141.653L357.195 118.949L366.597 110.089L376 133.347L385.403 130.578L394.252 144.976L403.655 86.8316L413.058 112.858L421.907 116.734L431.31 95.6917L440.159 99.0142L449.009 126.702L458.412 108.982L467.261 123.933L476.664 116.734L485.513 139.438L494.916 142.207L503.766 161.588L522.018 128.917L531.42 151.621L540.27 189.83L549.673 184.846L557.969 194.813L567.925 199.243L576.774 193.152L586.73 143.868L594.473 151.067L604.429 149.959L613.279 126.148L622.128 168.233L632.084 162.696L640.934 151.067L649.783 154.943H659.739L668.589 162.696L677.991 152.728L686.841 146.637L695.69 151.067L714.496 149.406L722.792 152.174L733.854 150.513L743.257 153.282L751 149.959" stroke="#4B40EE" stroke-width="2" stroke-linejoin="round"/>
</svg>
